# xmcd CD database file
#
# Track frame offsets:
#	150
#	15526
#	30162
#	43073
#	54461
#	68794
#	81518
#	95502
#	111009
#	125526
#	138751
#	152144
#	166130
#	188618
#	210100
#	225855
#	236657
#	254959
#	285845
#	300460
#
# Disc length: 4200 seconds
#
# Revision: 0
# Processed by: cddbd v1.5.2PL0 Copyright (c) Steve Scherf et al.
# Submitted via: CDex 1.77
#
DISCID=f8106614
DTITLE=Louis Armstrong - Louis Armstrong Compilation
DYEAR=2006
DGENRE=Jazz
TTITLE0=Mack The Knife
TTITLE1=Only You
TTITLE2=Ramona
TTITLE3=When The Saints Go Marchin' In
TTITLE4=You Rascal You
TTITLE5=April In Portugal
TTITLE6=C'Est Si Bon
TTITLE7=La Vie En Rose
TTITLE8=Just A Gigolo
TTITLE9=Blueberry Hill
TTITLE10=I Can't Give You Anything But Love
TTITLE11=Lazy River
TTITLE12=Skokiaan
TTITLE13=Tea For Two
TTITLE14=Basin Street Blues
TTITLE15=In The Shade Of The Old Apple Tree
TTITLE16=Sweet Georgia Brown
TTITLE17=On The Sunny Side Of The Street
TTITLE18=Can Anyone Explain
TTITLE19=The Frim Fram Sauce
EXTD=YEAR: 2006
EXTT0=
EXTT1=
EXTT2=
EXTT3=
EXTT4=
EXTT5=
EXTT6=
EXTT7=
EXTT8=
EXTT9=
EXTT10=
EXTT11=
EXTT12=
EXTT13=
EXTT14=
EXTT15=
EXTT16=
EXTT17=
EXTT18=
EXTT19=
PLAYORDER=
